<?xml version="1.0" standalone="no"?>
<!DOCTYPE svg PUBLIC "-//W3C//DTD SVG 20010904//EN"
 "http://www.w3.org/TR/2001/REC-SVG-20010904/DTD/svg10.dtd">
<svg version="1.0" xmlns="http://www.w3.org/2000/svg"
 width="784.000000pt" height="784.000000pt" viewBox="0 0 784.000000 784.000000"
 preserveAspectRatio="xMidYMid meet">
<metadata>
Created by potrace 1.11, written by Peter Selinger 2001-2013
</metadata>
<g transform="translate(0.000000,784.000000) scale(0.100000,-0.100000)"
fill="#000000" stroke="none">
<path d="M6137 7064 c-2 -2 -46 -7 -98 -9 -52 -3 -103 -7 -115 -9 -12 -2 -43
-7 -70 -11 -57 -7 -59 -7 -139 -24 -112 -24 -210 -52 -262 -76 -57 -26 -58
-27 -119 -82 -40 -37 -120 -143 -108 -143 4 0 2 -6 -4 -12 -16 -20 -35 -98
-38 -151 -1 -26 -4 -50 -6 -53 -3 -2 1 -34 8 -70 18 -100 73 -202 142 -266 57
-52 144 -104 190 -113 12 -2 26 -7 32 -10 33 -20 191 -9 295 21 124 36 369 53
465 33 91 -19 192 -19 264 2 252 69 400 321 342 579 -11 49 -75 166 -113 205
-62 65 -160 127 -221 139 -9 1 -28 6 -42 9 -14 4 -41 9 -60 12 -19 3 -46 8
-60 10 -14 2 -77 7 -140 10 -63 3 -120 8 -127 10 -6 2 -13 2 -16 -1z"/>
<path d="M1628 7055 c-2 -2 -34 -5 -73 -8 -38 -3 -82 -8 -97 -11 -16 -4 -39
-8 -53 -10 -166 -29 -316 -169 -367 -343 -14 -47 -17 -189 -6 -233 34 -130 95
-217 205 -292 102 -70 229 -94 373 -71 92 14 293 6 383 -16 20 -5 37 -7 37 -4
0 3 6 0 13 -6 8 -6 17 -8 20 -5 3 4 14 3 24 -1 10 -4 25 -9 33 -11 8 -2 38 -8
65 -14 52 -12 152 -15 195 -6 47 10 150 50 150 58 0 4 6 8 13 8 24 0 134 114
165 170 79 143 83 311 12 450 -28 55 -67 109 -98 133 -12 10 -28 25 -36 32
-32 32 -132 78 -206 95 -100 24 -170 39 -201 44 -19 3 -45 8 -59 11 -14 3 -46
7 -71 10 -25 3 -56 8 -70 11 -26 5 -346 14 -351 9z"/>
<path d="M3630 6210 c-63 -8 -174 -46 -191 -66 -6 -8 -17 -14 -24 -14 -21 0
-133 -127 -160 -180 -14 -28 -22 -50 -19 -50 4 0 2 -6 -4 -12 -5 -7 -13 -33
-17 -58 -18 -107 -9 -201 27 -280 12 -25 22 -47 22 -50 2 -9 50 -75 70 -96 12
-12 59 -54 106 -94 47 -39 90 -77 95 -83 6 -7 30 -30 55 -51 25 -22 117 -107
204 -190 87 -83 167 -159 177 -168 11 -10 22 -18 27 -18 4 0 87 78 183 173 97
94 218 210 270 257 166 152 225 215 255 276 16 32 29 63 30 69 2 5 7 33 13 60
53 266 -140 527 -414 561 -33 5 -64 7 -70 5 -5 -1 -19 -3 -30 -3 -46 -1 -144
-32 -194 -60 -43 -25 -57 -29 -70 -20 -64 46 -149 80 -221 88 -25 3 -49 6 -55
8 -5 1 -35 -1 -65 -4z"/>
<path d="M490 5875 c-61 -15 -141 -47 -166 -67 -114 -90 -183 -199 -205 -324
-10 -61 -7 -314 5 -424 8 -64 16 -125 21 -150 3 -14 7 -38 10 -55 19 -116 92
-332 152 -447 58 -112 147 -190 263 -231 71 -25 82 -27 160 -27 95 -1 164 17
249 67 55 32 161 138 161 161 0 4 6 14 12 21 7 6 13 15 14 19 0 4 7 21 14 37
17 40 21 64 25 162 4 90 -4 128 -60 273 -20 52 -39 103 -41 115 -2 11 -6 31
-9 45 -11 51 -16 108 -21 250 -2 80 -9 171 -15 204 -11 59 -43 140 -66 164 -7
7 -13 17 -13 22 0 12 -84 90 -131 122 -92 62 -249 89 -359 63z"/>
<path d="M7202 5825 c-117 -27 -229 -106 -295 -209 -18 -27 -32 -51 -33 -55 0
-3 -6 -19 -13 -36 -19 -46 -29 -119 -35 -255 -3 -69 -8 -136 -11 -150 -3 -14
-7 -38 -9 -55 -9 -60 -36 -143 -76 -235 -22 -52 -42 -105 -45 -117 -2 -12 -6
-27 -10 -33 -3 -5 -6 -45 -7 -87 -2 -134 47 -255 141 -350 45 -45 148 -109
188 -118 10 -2 36 -8 58 -13 128 -29 282 11 399 103 33 26 126 142 126 158 0
3 14 35 30 70 17 36 30 67 30 70 0 2 7 21 15 41 8 20 15 38 15 41 0 3 6 20 13
38 8 17 20 57 27 87 7 30 15 59 18 65 3 5 7 16 8 25 1 8 4 29 8 45 4 17 9 53
12 80 3 28 8 53 10 56 9 15 19 184 19 324 -1 148 -1 151 -34 229 -58 135 -196
252 -331 281 -58 13 -162 13 -218 0z"/>
<path d="M1570 3805 c-183 -38 -329 -181 -371 -362 -29 -127 1 -283 75 -381
88 -119 600 -647 677 -699 147 -99 314 -111 478 -35 51 23 64 32 116 79 41 36
93 109 114 158 60 144 49 322 -28 440 -37 57 -40 61 -214 238 -87 88 -200 205
-250 260 -51 55 -119 127 -152 161 -60 60 -155 120 -208 130 -14 2 -31 7 -36
11 -19 11 -146 11 -201 0z"/>
<path d="M6080 3751 c-122 -39 -164 -73 -395 -326 -49 -54 -112 -122 -140
-150 -244 -254 -285 -299 -285 -315 0 -5 -3 -10 -8 -10 -8 0 -50 -103 -59
-147 -12 -56 -5 -180 12 -234 46 -143 150 -256 283 -308 130 -51 266 -44 395
20 49 25 95 65 222 193 147 150 287 298 396 420 24 27 55 61 68 75 127 139
156 343 75 529 -10 23 -22 42 -26 42 -5 0 -8 6 -8 13 0 34 -172 177 -214 177
-8 0 -17 4 -20 9 -18 29 -216 36 -296 12z"/>
<path d="M3290 2133 c-30 -7 -64 -15 -74 -18 -41 -10 -130 -72 -178 -124 -172
-188 -170 -473 4 -653 29 -29 86 -83 127 -118 41 -36 90 -78 109 -95 18 -16
51 -46 73 -65 21 -19 44 -39 51 -45 13 -10 41 -33 149 -127 30 -26 65 -57 79
-68 14 -12 52 -45 84 -73 33 -29 69 -58 80 -66 12 -8 25 -21 29 -28 6 -10 47
-13 168 -13 l160 0 36 32 c20 18 49 44 64 58 15 14 49 44 76 67 26 23 62 54
78 68 47 41 165 148 191 173 13 12 26 22 29 22 3 0 22 17 43 38 21 20 77 73
125 116 128 116 185 222 192 358 5 88 -11 162 -51 244 -120 245 -432 339 -669
200 -43 -26 -45 -27 -156 -128 -41 -36 -85 -76 -98 -87 l-24 -21 -26 22 c-14
13 -30 27 -36 33 -5 5 -59 53 -120 105 -60 52 -112 97 -115 101 -3 3 -24 18
-47 32 -98 62 -246 87 -353 60z"/>
</g>
</svg>
