<?xml version="1.0" encoding="UTF-8"?>
<svg width="11px" height="18px" viewBox="0 0 11 18" version="1.1" xmlns="http://www.w3.org/2000/svg" xmlns:xlink="http://www.w3.org/1999/xlink">
    <g id="Page-1" stroke="none" stroke-width="1" fill="none" fill-rule="evenodd">
        <path d="M9.6303816,0.466929514 C10.1859509,1.01615004 10.1910976,1.91175916 9.64187708,2.46732847 C9.63806731,2.47118229 9.63423541,2.47501418 9.6303816,2.47882396 L3.48801413,8.54985725 L9.6303816,14.6216811 C10.1859509,15.1709016 10.1910976,16.0665108 9.64187708,16.6220801 L9.6303816,16.6335755 L9.6303816,16.6335755 C9.06650823,17.1910052 8.15910378,17.1910052 7.59523041,16.6335755 L0.472201248,9.59194499 C0.183693288,9.30673396 0.0436200038,8.92811093 0.0525338083,8.55220478 C0.0426813945,8.18070651 0.178523522,7.80549972 0.460705761,7.52005556 L0.472201248,7.50856007 L0.472201248,7.50856007 L7.59523041,0.466929514 C8.15910378,-0.0905001773 9.06650823,-0.0905001773 9.6303816,0.466929514 Z" id="Combined-Shape" fill="#FFFFFF"></path>
    </g>
</svg>