<?xml version="1.0" encoding="UTF-8"?>
<svg width="21px" height="21px" viewBox="0 0 21 21" version="1.1" xmlns="http://www.w3.org/2000/svg" xmlns:xlink="http://www.w3.org/1999/xlink">
    <defs>
        <rect id="path-1" x="0" y="0" width="150" height="37" rx="5"></rect>
        <filter x="-1.3%" y="-5.4%" width="102.7%" height="110.8%" filterUnits="objectBoundingBox" id="filter-2">
            <feGaussianBlur stdDeviation="1.5" in="SourceAlpha" result="shadowBlurInner1"></feGaussianBlur>
            <feOffset dx="0" dy="-1" in="shadowBlurInner1" result="shadowOffsetInner1"></feOffset>
            <feComposite in="shadowOffsetInner1" in2="SourceAlpha" operator="arithmetic" k2="-1" k3="1" result="shadowInnerInner1"></feComposite>
            <feColorMatrix values="0 0 0 0 0   0 0 0 0 0   0 0 0 0 0  0 0 0 0.199686544 0" type="matrix" in="shadowInnerInner1"></feColorMatrix>
        </filter>
    </defs>
    <g id="Page-1" stroke="none" stroke-width="1" fill="none" fill-rule="evenodd">
        <g id="Chrome-(Second-Monitor)-Copy-6" transform="translate(-912.000000, -716.000000)">
            <g id="Button" transform="translate(900.000000, 708.000000)">
                <g id="Rectangle">
                    <use fill="#FFFFFF" fill-rule="evenodd" xlink:href="#path-1"></use>
                    <use fill="black" fill-opacity="1" filter="url(#filter-2)" xlink:href="#path-1"></use>
                    <rect stroke="#C8C8C8" stroke-width="1" stroke-linejoin="square" x="0.5" y="0.5" width="149" height="36" rx="5"></rect>
                </g>
                <g id="noun_export_1179490" transform="translate(12.000000, 8.000000)" fill="#D4D4D4" fill-rule="nonzero">
                    <g id="Shape">
                        <path d="M10.2,20.25 C4.64953827,20.25 0.15,15.7504617 0.15,10.2 C0.15,4.64953827 4.64953827,0.15 10.2,0.15 C15.7504617,0.15 20.25,4.64953827 20.25,10.2 C20.25,15.7504617 15.7504617,20.25 10.2,20.25 Z M10.8132269,6.19341111 L13.82101,9.26417244 C14.6670034,10.1125898 13.3980134,11.385516 12.5517208,10.5370985 L11.5220853,9.50058549 C11.2876818,9.2646162 11.097578,9.34283952 11.097578,9.67540419 L11.097578,13.8022018 C11.097578,14.2953375 10.6957773,14.7 10.200131,14.7 C9.70549323,14.7 9.30268398,14.298042 9.30268398,13.8022018 L9.30268398,9.67540419 C9.30268398,9.3446328 9.11258646,9.26457051 8.87808927,9.50058549 L7.84824198,10.5370985 C7.00224861,11.385516 5.73295941,10.1125898 6.57895278,9.26417244 L9.55590915,6.19765038 C9.90396192,5.83912599 10.4656212,5.83852704 10.8132269,6.19341111 Z M10.2,18.15 C14.5906638,18.15 18.15,14.5906638 18.15,10.2 C18.15,5.80933623 14.5906638,2.25 10.2,2.25 C5.80933623,2.25 2.25,5.80933623 2.25,10.2 C2.25,14.5906638 5.80933623,18.15 10.2,18.15 Z"></path>
                    </g>
                </g>
            </g>
        </g>
    </g>
</svg>