<?xml version="1.0" encoding="UTF-8"?>
<svg width="15px" height="14px" viewBox="0 0 15 14" version="1.1" xmlns="http://www.w3.org/2000/svg" xmlns:xlink="http://www.w3.org/1999/xlink">
    <g id="Page-1" stroke="none" stroke-width="1" fill="none" fill-rule="evenodd" transform="translate(6.000000, 0)">
        <path d="M4.58838,0.03 C2.52417,0.03 0.83826,1.709679 0.83826,3.780102 L0.83826,5.445207 C0.74004,5.467524 0.64032,5.484693 0.54213,5.508321 C0.24015,5.581605 0.03,5.857836 0.03,6.168528 L0.03,12.105582 C0.03,12.393903 0.21168,12.65685 0.4863,12.748815 C3.22284,13.663479 5.95755,13.663479 8.69283,12.748815 C8.96628,12.656829 9.14919,12.393903 9.14919,12.105582 L9.14919,6.168528 C9.14799,5.859087 8.93778,5.580402 8.63703,5.508321 C8.53761,5.48349 8.43789,5.467524 8.33847,5.445207 L8.33847,3.780102 C8.33847,1.709679 6.6588,0.03 4.58838,0.03 Z M4.58838,1.634415 C5.77149,1.634415 6.73164,2.598246 6.73164,3.780102 L6.73164,5.161209 C5.30247,4.978524 3.87309,4.978524 2.44266,5.161209 L2.44266,3.780102 C2.44266,2.598246 3.40653,1.634415 4.58838,1.634415 Z M4.59048,7.58361 C5.08635,7.58361 5.49099,7.984602 5.49099,8.481705 C5.49099,8.767533 5.35386,9.021552 5.14632,9.185598 L5.3745,11.095845 L3.80406,11.095845 L4.03461,9.185598 C3.82584,9.021552 3.68997,8.768778 3.68997,8.481705 C3.68997,7.985841 4.09338,7.58361 4.59048,7.58361 Z" id="Shape" fill="#878787" fill-rule="nonzero"></path>
    </g>
</svg>