<?xml version="1.0" encoding="UTF-8"?>
<svg width="14px" height="15px" viewBox="0 0 14 15" version="1.1" xmlns="http://www.w3.org/2000/svg" xmlns:xlink="http://www.w3.org/1999/xlink">
    <g id="Page-1" stroke="none" stroke-width="1" fill="none" fill-rule="evenodd">
        <path d="M1.96140507,6.55610082 L0.71138567,6.55314664 C0.146257142,6.55181107 -0.0882090655,7.09260934 0.0296875562,7.48009884 L2.30395452,11.6036517 C2.5780178,11.9562248 3.04303024,11.9563952 3.3889644,11.46786 L5.64354711,7.49336611 C5.75932883,7.01078684 5.52339895,6.5645189 4.95733478,6.56318112 L3.85140445,6.56056747 C4.25665353,4.2995451 6.15809308,2.85176585 8.43919135,2.85715678 C11.0187598,2.86325309 13.1224704,4.95099219 13.1286932,7.5110558 C13.1349161,10.0711194 11.2686922,12.1494763 8.46176243,12.1428427 L8.46627665,14 C12.2088497,14.0088247 15.0086922,11.099753 15,7.51547822 C14.9912673,3.93120346 12.0453245,1.00855267 8.43467713,1 C5.13185643,0.992214025 2.39702266,3.31644455 1.96140507,6.55610082" id="Path" fill="#878787" fill-rule="nonzero" transform="translate(7.500000, 7.500000) scale(-1, 1) rotate(58.000000) translate(-7.500000, -7.500000) "></path>
    </g>
</svg>