<?xml version="1.0" encoding="UTF-8"?>
<svg width="24px" height="24px" viewBox="0 0 24 24" version="1.1" xmlns="http://www.w3.org/2000/svg" xmlns:xlink="http://www.w3.org/1999/xlink">
    <defs>
        <linearGradient x1="50%" y1="0%" x2="50%" y2="100%" id="linearGradient-1">
            <stop stop-color="#FF889A" offset="0%"></stop>
            <stop stop-color="#FD82AB" offset="99.9211238%"></stop>
        </linearGradient>
    </defs>
    <g id="Page-1" stroke="none" stroke-width="1" fill="none" fill-rule="evenodd">
        <path d="M3.27205574,9.42857143 L1.18861832,9.42857143 C0.246704995,9.42857143 -0.146278709,10.3447143 0.0486536837,11 L3.82254482,17.9692857 C4.27790688,18.5648571 5.05295808,18.5632857 5.63151742,17.7351429 L9.40540854,11 C9.60034094,10.1828571 9.20891669,9.42857143 8.26544391,9.42857143 L6.42216321,9.42857143 C7.10676577,5.60057143 10.2818246,3.14285714 14.083786,3.14285714 C18.3832149,3.14285714 21.8810817,6.66757143 21.8810817,11 C21.8810817,15.3324286 18.7621634,18.8571429 14.083786,18.8571429 L14.083786,22 C20.3216226,22 25,17.0657143 25,11 C25,4.93428571 20.1017388,0 14.083786,0 C8.5788952,0 4.01123937,3.94428571 3.27205574,9.42857143" id="Path" fill="url(#linearGradient-1)" fill-rule="nonzero" transform="translate(12.500000, 11.000000) scale(-1, 1) rotate(58.000000) translate(-12.500000, -11.000000) "></path>
    </g>
</svg>