<?xml version="1.0" encoding="UTF-8"?>
<svg width="17px" height="17px" viewBox="0 0 17 17" version="1.1" xmlns="http://www.w3.org/2000/svg" xmlns:xlink="http://www.w3.org/1999/xlink">
    <defs>
        <linearGradient x1="50%" y1="0%" x2="50%" y2="100%" id="linearGradient-1">
            <stop stop-color="#FF889A" offset="0%"></stop>
            <stop stop-color="#FD82AB" offset="99.9211238%"></stop>
        </linearGradient>
    </defs>
    <g id="Page-1" stroke="none" stroke-width="1" fill="none" fill-rule="evenodd">
        <path d="M22.2720557,31.4285714 L20.1886183,31.4285714 C19.246705,31.4285714 18.8537213,32.3447143 19.0486537,33 L22.8225448,39.9692857 C23.2779069,40.5648571 24.0529581,40.5632857 24.6315174,39.7351429 L28.4054085,33 C28.6003409,32.1828571 28.2089167,31.4285714 27.2654439,31.4285714 L25.4221632,31.4285714 C26.1067658,27.6005714 29.2818246,25.1428571 33.083786,25.1428571 C37.3832149,25.1428571 40.8810817,28.6675714 40.8810817,33 C40.8810817,37.3324286 37.7621634,40.8571429 33.083786,40.8571429 L33.083786,44 C39.3216226,44 44,39.0657143 44,33 C44,26.9342857 39.1017388,22 33.083786,22 C27.5788952,22 23.0112394,25.9442857 22.2720557,31.4285714" id="Path" fill="url(#linearGradient-1)" fill-rule="nonzero" transform="translate(31.500000, 33.000000) scale(-1, 1) rotate(58.000000) translate(-31.500000, -33.000000) "></path>
        <path d="M2.02224074,6.84393342 L0.509276813,6.84031141 C-0.174727835,6.83867391 -0.458514563,7.50172758 -0.315818108,7.9768148 L2.43684629,13.0325575 C2.76855942,13.464835 3.33138833,13.4650439 3.75009055,12.866068 L6.47893006,7.99308133 C6.61906673,7.40140791 6.33350845,6.85425453 5.64837135,6.85261433 L4.30980596,6.84940982 C4.80030013,4.07725006 7.10171199,2.30217899 9.86264466,2.30878862 C12.9848315,2.31626309 15.5310625,4.87596635 15.5385943,8.01477003 C15.5461261,11.1535737 13.2873377,13.7017738 9.88996363,13.6936406 L9.89542742,15.9706356 C14.4252596,15.9814553 17.8140555,12.4147451 17.8035349,8.02019221 C17.7929652,3.62563936 14.2273364,0.0422803214 9.85718087,0.0317941997 C5.85960403,0.0222480907 2.54949153,2.87190515 2.02224074,6.84393342" id="Path" fill="#FA6A95" fill-rule="nonzero" transform="translate(8.725892, 8.001215) scale(-1, 1) rotate(58.000000) translate(-8.725892, -8.001215) "></path>
    </g>
</svg>