<?xml version="1.0" encoding="UTF-8"?>
<svg width="16px" height="14px" viewBox="0 0 16 14" version="1.1" xmlns="http://www.w3.org/2000/svg" xmlns:xlink="http://www.w3.org/1999/xlink">
    <g id="Page-1" stroke="none" stroke-width="1" fill="none" fill-rule="evenodd">
        <path d="M6.83826,5.445207 C6.74004,5.467524 6.64032,5.484693 6.54213,5.508321 C6.24015,5.581605 6.03,5.857836 6.03,6.168528 L6.03,12.105582 C6.03,12.393903 6.21168,12.65685 6.4863,12.748815 C9.22284,13.663479 11.95755,13.663479 14.69283,12.748815 C14.96628,12.656829 15.14919,12.393903 15.14919,12.105582 L15.14919,6.168528 C15.14799,5.859087 14.93778,5.580402 14.63703,5.508321 C14.53761,5.48349 14.43789,5.467524 14.33847,5.445207 C13.2773857,5.22146186 12.0277607,5.10958928 10.589595,5.10958928 C9.15142933,5.10958928 7.90098433,5.22146186 6.83826,5.445207 Z M4.58838,0.03 C2.52417,0.03 0.83826,1.709679 0.83826,3.780102 L0.83826,5.445207 C0.74004,5.467524 8.43789,5.467524 8.33847,5.445207 L8.33847,3.780102 C8.33847,1.709679 6.6588,0.03 4.58838,0.03 Z M4.58838,1.634415 C5.77149,1.634415 6.73164,2.598246 6.73164,3.780102 L6.73164,5.42603329 C4.58838,5.42603329 3.87016956,5.42603329 2.44266,5.42603329 L2.44266,3.780102 C2.44266,2.598246 3.40653,1.634415 4.58838,1.634415 Z M10.59048,7.58361 C11.08635,7.58361 11.49099,7.984602 11.49099,8.481705 C11.49099,8.767533 11.35386,9.021552 11.14632,9.185598 L11.3745,11.095845 L9.80406,11.095845 L10.03461,9.185598 C9.82584,9.021552 9.68997,8.768778 9.68997,8.481705 C9.68997,7.985841 10.09338,7.58361 10.59048,7.58361 Z" id="Shape" fill="#878787" fill-rule="nonzero"></path>
    </g>
</svg>