<?xml version="1.0" encoding="UTF-8"?>
<svg width="134px" height="32px" viewBox="0 0 134 32" version="1.1" xmlns="http://www.w3.org/2000/svg" xmlns:xlink="http://www.w3.org/1999/xlink">
    <g id="Page-1" stroke="none" stroke-width="1" fill="none" fill-rule="evenodd">
        <path d="M115.046609,20.4670587 C126.718573,13.3367758 132.554555,12.6591962 132.554555,18.43432 C132.554555,23.8788752 127.67117,26.6011366 117.904399,26.6011041 L5,26.6011041 C2.82126203,26.3782588 1.73189304,27.0667097 1.73189304,28.6664567 C1.73189304,30.2662038 2.82126203,30.9223413 5,30.6348694 L123.314613,30.6348694 C125.774648,30.1465949 127.004665,28.4917307 127.004665,25.6702768" id="Path" stroke="#FFFFFF" stroke-width="2" stroke-linecap="round"></path>
        <path d="M5.024,22.32 C9.568,22.32 11.36,18.768 13.376,14.928 C14.176,13.424 15.04,12.688 16.672,12.688 C16.416,13.936 15.904,16.784 15.904,18.608 C15.904,20.72 16.896,22.16 19.008,22.16 C21.024,22.16 22.4,20.912 23.072,20.048 C23.392,19.632 23.584,19.376 23.584,19.024 C23.584,18.832 23.424,18.576 23.136,18.576 C22.944,18.576 22.816,18.672 22.592,18.896 C22.176,19.312 21.92,19.568 21.376,19.568 C20.672,19.568 20.32,18.896 20.32,17.776 C20.32,14.512 21.792,7.856 22.624,5.136 C23.392,2.576 23.904,2.128 23.904,1.68 C23.904,1.392 23.744,1.136 23.328,1.136 C22.816,1.136 21.408,1.648 18.784,1.648 C17.184,1.648 15.296,0.784 11.872,0.784 C8.256,0.784 4.928,2.8 4.928,6.256 C4.928,8.496 6.592,9.968 8.576,9.968 C10.816,9.968 12.352,7.92 12.352,6.736 C12.352,6.512 12.192,6.384 12,6.384 C11.776,6.384 11.552,6.704 11.04,6.704 C10.208,6.704 9.696,6.224 9.696,5.296 C9.696,4.112 10.976,2.96 12.8,2.96 C14.336,2.96 15.84,3.248 16.96,3.6 C15.5403636,4.88 14.222281,7.00628099 12.9195853,9.19103231 L12.4316273,10.0115162 C12.1065785,10.558281 11.7818182,11.1025455 11.456,11.632 C9.952,14.064 8.128,17.104 6.176,17.104 C4.864,17.104 4.32,16.432 4.32,15.44 C4.32,14.704 4.896,14.256 4.896,13.872 C4.896,13.648 4.768,13.456 4.448,13.456 C3.136,13.456 0,14.832 0,17.84 C0,20.528 2.144,22.32 5.024,22.32 Z M17.216,10.672 L15.136,10.672 C15.808,9.072 17.696,5.712 19.616,4.144 C18.912,5.712 17.76,8.304 17.216,10.672 Z M32.544,22.16 C34.56,22.16 35.936,20.912 36.608,20.048 C36.928,19.632 37.12,19.376 37.12,19.024 C37.12,18.832 36.96,18.576 36.672,18.576 C36.48,18.576 36.352,18.672 36.128,18.896 C35.712,19.312 35.456,19.568 34.912,19.568 C34.336,19.568 33.888,19.248 33.888,18.416 C33.888,17.104 34.784,15.504 34.784,14.032 C34.784,12.816 34.08,12.016 32.32,12.016 C30.432,12.016 28.544,13.584 27.968,14.288 C27.968,14.288 28.224,13.36 28.224,12.848 C28.224,12.304 27.84,12.016 27.136,12.016 C25.28,12.016 23.552,12.496 23.552,13.2 C23.552,13.616 23.776,13.68 23.776,14.224 C23.776,15.952 22.432,20.272 22.432,21.456 C22.432,22 22.688,22.16 23.104,22.16 C23.584,22.16 24.832,22 25.792,22 C26.272,22 26.496,21.872 26.496,21.328 C26.496,20.08 27.328,17.36 27.872,16.272 C28.576,14.864 29.344,14.32 29.888,14.32 C30.336,14.32 30.624,14.704 30.624,15.216 C30.624,16.464 29.6,17.744 29.6,19.696 C29.6,21.072 30.72,22.16 32.544,22.16 Z M39.84,10.32 C41.056,10.32 42.208,8.944 42.208,7.664 C42.208,6.704 41.568,5.968 40.416,5.968 C39.2,5.968 38.048,7.312 38.048,8.592 C38.048,9.552 38.848,10.32 39.84,10.32 Z M39.328,22.16 C41.344,22.16 42.72,20.912 43.392,20.048 C43.712,19.632 43.904,19.376 43.904,19.024 C43.904,18.832 43.744,18.576 43.456,18.576 C43.264,18.576 43.136,18.672 42.912,18.896 C42.496,19.312 42.24,19.568 41.696,19.568 C41.12,19.568 40.64,19.088 40.64,18.256 C40.64,16.144 41.664,14.128 41.664,12.848 C41.664,12.304 41.28,12.016 40.576,12.016 C38.72,12.016 37.024,12.496 37.024,13.2 C37.024,13.616 37.216,13.68 37.216,14.224 C37.216,15.376 36.16,17.456 36.16,19.504 C36.16,20.976 37.216,22.16 39.328,22.16 Z M60.128,22.16 C62.144,22.16 63.52,20.912 64.192,20.048 C64.512,19.632 64.704,19.376 64.704,19.024 C64.704,18.832 64.544,18.576 64.256,18.576 C64.064,18.576 63.936,18.672 63.712,18.896 C63.296,19.312 63.04,19.568 62.496,19.568 C61.92,19.568 61.472,19.248 61.472,18.416 C61.472,17.136 62.368,15.568 62.368,14.192 C62.368,12.784 61.504,12.016 59.648,12.016 C57.312,12.016 55.616,13.776 55.36,14.032 C55.264,13.552 54.72,12.016 52.736,12.016 C50.304,12.016 48.64,13.936 48.32,14.288 C48.32,14.288 48.576,13.36 48.576,12.848 C48.576,12.304 48.192,12.016 47.488,12.016 C45.632,12.016 43.904,12.496 43.904,13.2 C43.904,13.616 44.128,13.68 44.128,14.224 C44.128,15.952 42.784,20.272 42.784,21.456 C42.784,22 43.04,22.16 43.456,22.16 C43.936,22.16 45.184,22 46.144,22 C46.624,22 46.848,21.872 46.848,21.328 C46.848,20.08 47.616,17.328 48.224,16.272 C48.992,14.928 49.888,14.32 50.464,14.32 C50.944,14.32 51.168,14.704 51.168,15.28 C51.168,16.624 49.984,19.568 49.984,21.456 C49.984,22 50.24,22.16 50.624,22.16 C51.168,22.16 52.416,22 53.408,22 C53.888,22 54.08,21.872 54.08,21.328 C54.08,19.792 54.816,17.392 55.488,16.112 C56.128,14.864 56.832,14.32 57.44,14.32 C57.92,14.32 58.208,14.608 58.208,15.216 C58.208,16.464 57.184,17.744 57.184,19.696 C57.184,21.04 58.304,22.16 60.128,22.16 Z M73.664,22.16 C75.68,22.16 77.056,20.912 77.728,20.048 C78.048,19.632 78.24,19.376 78.24,19.024 C78.24,18.832 78.08,18.576 77.792,18.576 C77.6,18.576 77.472,18.672 77.248,18.896 C76.832,19.312 76.576,19.568 76.032,19.568 C75.456,19.568 74.944,19.088 74.944,18.256 C74.944,15.76 76.064,13.264 76.064,12.496 C76.064,12.144 75.872,12.016 75.584,12.016 C74.848,12.016 73.472,12.624 72.928,12.624 C72.416,12.624 71.936,12.016 70.24,12.016 C65.664,12.016 63.744,15.248 63.744,18.416 C63.744,20.88 65.28,22.16 67.168,22.16 C69.504,22.16 71.2,20.464 71.2,20.464 C71.2,20.464 71.744,22.16 73.664,22.16 Z M68.992,20.048 C68.288,20.048 67.904,19.376 67.904,18.544 C67.904,16.784 68.704,13.424 70.528,13.424 C71.2,13.424 71.488,13.776 71.488,14.352 C71.488,15.6 71.04,17.712 70.656,18.544 C70.24,19.504 69.6,20.048 68.992,20.048 Z M80.576,22.16 C83.008,22.16 85.76,19.536 85.76,18.608 C85.76,18.416 85.6,18.224 85.344,18.224 C84.896,18.224 83.904,19.568 82.976,19.568 C82.208,19.568 81.728,19.216 81.728,18.256 C81.728,17.2 82.144,15.568 82.4,14.64 C82.624,13.872 82.976,13.616 83.776,13.616 C84.16,13.616 84.512,13.168 84.512,12.528 C84.512,12.272 84.32,12.176 84.064,12.176 C83.104,12.176 82.976,11.952 82.976,11.536 C82.976,10.992 83.424,9.68 83.424,8.976 C83.424,8.72 83.264,8.464 82.912,8.464 C82.624,8.464 82.368,8.656 82.048,9.168 C81.216,10.512 79.648,12.176 77.952,12.176 C77.6,12.176 77.408,12.784 77.408,13.104 C77.408,13.68 78.272,13.424 78.272,13.84 C78.272,15.44 77.28,17.04 77.28,19.088 C77.28,20.784 78.272,22.16 80.576,22.16 Z M88.48,10.32 C89.696,10.32 90.848,8.944 90.848,7.664 C90.848,6.704 90.208,5.968 89.056,5.968 C87.84,5.968 86.688,7.312 86.688,8.592 C86.688,9.552 87.488,10.32 88.48,10.32 Z M87.968,22.16 C89.984,22.16 91.36,20.912 92.032,20.048 C92.352,19.632 92.544,19.376 92.544,19.024 C92.544,18.832 92.384,18.576 92.096,18.576 C91.904,18.576 91.776,18.672 91.552,18.896 C91.136,19.312 90.88,19.568 90.336,19.568 C89.76,19.568 89.28,19.088 89.28,18.256 C89.28,16.144 90.304,14.128 90.304,12.848 C90.304,12.304 89.92,12.016 89.216,12.016 C87.36,12.016 85.664,12.496 85.664,13.2 C85.664,13.616 85.856,13.68 85.856,14.224 C85.856,15.376 84.8,17.456 84.8,19.504 C84.8,20.976 85.856,22.16 87.968,22.16 Z M96.224,22.288 C100.16,22.288 102.432,19.216 102.432,15.632 C102.432,13.424 100.8,11.888 98.432,11.888 C94.048,11.888 91.584,14.992 91.584,18.096 C91.584,20.656 93.408,22.288 96.224,22.288 Z M97.952,19.952 C96.704,19.952 95.872,19.024 95.872,17.584 C95.872,15.76 96.64,14.576 97.44,13.936 C97.888,13.584 98.208,13.488 98.336,13.488 C98.528,13.488 98.624,13.584 98.624,13.744 C98.624,13.936 98.144,14.192 98.144,14.992 C98.144,15.568 98.432,15.92 99.424,16.304 C99.872,16.496 100.064,16.976 100.064,17.52 C100.064,18.64 99.232,19.952 97.952,19.952 Z M112.864,22.16 C114.88,22.16 116.256,20.912 116.928,20.048 C117.248,19.632 117.44,19.376 117.44,19.024 C117.44,18.832 117.28,18.576 116.992,18.576 C116.8,18.576 116.672,18.672 116.448,18.896 C116.032,19.312 115.776,19.568 115.232,19.568 C114.656,19.568 114.208,19.248 114.208,18.416 C114.208,17.104 115.104,15.504 115.104,14.032 C115.104,12.816 114.4,12.016 112.64,12.016 C110.752,12.016 108.864,13.584 108.288,14.288 C108.288,14.288 108.544,13.36 108.544,12.848 C108.544,12.304 108.16,12.016 107.456,12.016 C105.6,12.016 103.872,12.496 103.872,13.2 C103.872,13.616 104.096,13.68 104.096,14.224 C104.096,15.952 102.752,20.272 102.752,21.456 C102.752,22 103.008,22.16 103.424,22.16 C103.904,22.16 105.152,22 106.112,22 C106.592,22 106.816,21.872 106.816,21.328 C106.816,20.08 107.648,17.36 108.192,16.272 C108.896,14.864 109.664,14.32 110.208,14.32 C110.656,14.32 110.944,14.704 110.944,15.216 C110.944,16.464 109.92,17.744 109.92,19.696 C109.92,21.072 111.04,22.16 112.864,22.16 Z" id="Animation" fill="#FFFFFF" fill-rule="nonzero"></path>
    </g>
</svg>