<?xml version="1.0" encoding="UTF-8"?>
<svg width="19px" height="18px" viewBox="0 0 19 18" version="1.1" xmlns="http://www.w3.org/2000/svg" xmlns:xlink="http://www.w3.org/1999/xlink">
    <defs>
        <rect id="path-1" x="17" y="698" width="243" height="57" rx="9"></rect>
        <filter x="-1.0%" y="-4.4%" width="102.1%" height="108.8%" filterUnits="objectBoundingBox" id="filter-2">
            <feGaussianBlur stdDeviation="1.5" in="SourceAlpha" result="shadowBlurInner1"></feGaussianBlur>
            <feOffset dx="0" dy="2" in="shadowBlurInner1" result="shadowOffsetInner1"></feOffset>
            <feComposite in="shadowOffsetInner1" in2="SourceAlpha" operator="arithmetic" k2="-1" k3="1" result="shadowInnerInner1"></feComposite>
            <feColorMatrix values="0 0 0 0 0   0 0 0 0 0   0 0 0 0 0  0 0 0 0.173636056 0" type="matrix" in="shadowInnerInner1"></feColorMatrix>
        </filter>
    </defs>
    <g id="Page-1" stroke="none" stroke-width="1" fill="none" fill-rule="evenodd">
        <g id="Chrome-(Second-Monitor)-Copy-6" transform="translate(-218.000000, -728.000000)">
            <g id="Sidebar" transform="translate(-84.000000, -82.000000)"></g>
            <g id="Menu" transform="translate(0.000000, 687.000000)" fill="#F3F3F3" stroke="#D1D1D1">
                <rect id="Rectangle" x="0.5" y="0.5" width="1073" height="77"></rect>
            </g>
            <g id="Rectangle">
                <use fill="#6CB8FB" fill-rule="evenodd" xlink:href="#path-1"></use>
                <use fill="black" fill-opacity="1" filter="url(#filter-2)" xlink:href="#path-1"></use>
            </g>
            <path d="M227.499125,728 C222.253845,728 218,732.131378 218,737.228048 C218,741.305044 220.721784,744.763438 224.496823,745.983647 C224.972129,746.06862 225.145339,745.783678 225.145339,745.538956 C225.145339,745.320293 225.137174,744.739645 225.132509,743.969792 C222.49004,744.527213 221.932503,742.732587 221.932503,742.732587 C221.500353,741.666462 220.877498,741.382652 220.877498,741.382652 C220.014948,740.810502 220.942816,740.821832 220.942816,740.821832 C221.896344,740.886978 222.397894,741.772961 222.397894,741.772961 C223.245281,743.182943 224.621627,742.77564 225.162835,742.539416 C225.249148,741.943473 225.494674,741.536737 225.765861,741.306177 C223.656435,741.073351 221.438534,740.281405 221.438534,736.745403 C221.438534,735.738191 221.808865,734.913955 222.416557,734.269295 C222.318579,734.035903 221.992572,733.097236 222.509868,731.827176 C222.509868,731.827176 223.3071,731.579055 225.122011,732.773206 C225.879585,732.568139 226.692563,732.466171 227.500292,732.462206 C228.307437,732.466171 229.119832,732.568139 229.878572,732.773206 C231.692317,731.579055 232.488382,731.827176 232.488382,731.827176 C233.006845,733.097236 232.680837,734.035903 232.583443,734.269295 C233.192302,734.913955 233.559716,735.738191 233.559716,736.745403 C233.559716,740.290469 231.338316,741.070519 229.222475,741.298813 C229.563062,741.583755 229.866908,742.146841 229.866908,743.007899 C229.866908,744.241138 229.855244,745.236453 229.855244,745.538956 C229.855244,745.785944 230.026704,746.073152 230.508426,745.983081 C234.280549,744.760039 237,741.303911 237,737.228048 C237,732.131378 232.746155,728 227.499125,728" id="Fill-4" fill="#3571A6"></path>
        </g>
    </g>
</svg>