<?xml version="1.0" encoding="UTF-8"?>
<svg width="109px" height="109px" class="github-corner" viewBox="0 0 109 109" version="1.1" xmlns="http://www.w3.org/2000/svg" xmlns:xlink="http://www.w3.org/1999/xlink">
    <defs>
        <linearGradient x1="0" y1="0" x2="25" y2="20" id="linearGradient-1">
            <stop stop-color="#F15858" offset="0%"></stop>
            <stop stop-color="#C937B9" offset="100%"></stop>
        </linearGradient>
    </defs>
    <g id="Page-1" stroke="none" stroke-width="1" fill="none" fill-rule="evenodd">
        <g id="Chrome-(Second-Monitor)-Copy-4">
            <path d="M-2.79953838e-12,-0.0247120218 L-0.0816081889,108.574241 L50.0960207,58.7483012 L50.0960207,58.7483012 C50.953389,57.8239394 50.953389,57.1228668 50.48369,56.6531677 L50.2926515,56.4749196 L50.2926515,56.4749196 L48.7505149,55.082225 L48.7505149,55.082225 L47.909999,54.3035893 L47.909999,54.3035893 L47.4753596,53.8914858 L47.4753596,53.8914858 L47.0423145,53.472422 L47.0423145,53.472422 L46.6192503,53.0525709 L46.6192503,53.0525709 L46.2145534,52.638105 L46.2145534,52.638105 L45.8366103,52.2351973 C45.3542494,51.7084357 44.965596,51.2289563 44.7601059,50.8626016 C43.7815243,49.553575 43.4708581,48.3029268 43.5474519,47.3412982 L43.0031484,47.7675149 L43.0031484,47.7675149 L42.6334978,48.0454038 L42.6334978,48.0454038 L42.2584564,48.3171404 L42.2584564,48.3171404 L41.8780537,48.5817409 L41.8780537,48.5817409 L41.4923193,48.8382215 C41.4275876,48.880237 41.3626349,48.9218731 41.297462,48.9631094 L40.9037854,49.2055655 L40.9037854,49.2055655 L40.5048509,49.4374422 C40.4379253,49.4751521 40.3707819,49.5123801 40.3034212,49.5491058 L39.8966553,49.7632687 C36.0759352,51.7028045 31.577834,51.9385837 26.5104191,46.8711689 C24.5772597,44.9380094 23.704181,42.6471432 23.6301275,40.2465785 L23.4219964,40.155311 L23.4219964,40.155311 L23.1416528,40.015706 L23.1416528,40.015706 L22.920274,39.8930684 C22.8813134,39.8705445 22.8413677,39.8469559 22.8005074,39.8222687 L22.544933,39.66069 C21.527477,38.9886864 20.1006869,37.6996075 19.1215414,35.3807546 L19.1539203,35.3277266 L19.1539203,35.3277266 L19.2348972,35.2154475 L19.2348972,35.2154475 L19.3343274,35.0955469 L19.3343274,35.0955469 L19.4716203,34.9486668 L19.4716203,34.9486668 L19.5862698,34.8373639 L19.5862698,34.8373639 L19.7208762,34.716479 L19.7208762,34.716479 L19.8766912,34.5869754 L19.8766912,34.5869754 L20.0549663,34.4498168 L20.0549663,34.4498168 L20.2569531,34.3059665 L20.2569531,34.3059665 L20.4839034,34.1563881 C20.5238782,34.1310345 20.5649454,34.1054825 20.6071309,34.0797519 L20.873873,33.9233879 C20.9206362,33.8970239 20.96857,33.8705215 21.0177004,33.843901 L21.3270505,33.6829192 C21.3810715,33.655906 21.4363413,33.6288147 21.4928859,33.6016653 L21.84766,33.4382338 C21.9094082,33.4109327 21.9724834,33.3836137 22.0369116,33.3562969 L22.4399259,33.1925834 L22.4399259,33.1925834 L22.8766649,33.0298862 L22.8766649,33.0298862 L23.3483802,32.869169 C23.4299836,32.8426013 23.5130966,32.8161562 23.5977451,32.7898539 L24.1242715,32.633913 C24.669642,32.4800059 25.2721705,32.3326817 25.9374891,32.1962763 C26.994061,30.3525237 28.3545702,28.6005985 29.8931293,27.0468178 C31.4457937,25.5093751 33.1966024,24.1499822 35.0425878,23.0911776 C35.2014269,22.3152731 35.3751276,21.624833 35.5568103,21.0109081 L35.7143327,20.5032164 L35.7143327,20.5032164 L35.8748019,20.0317492 C35.9017389,19.9561205 35.9287585,19.8819489 35.9558407,19.8092084 L36.118925,19.3897297 C36.1734299,19.2554886 36.2280249,19.1267631 36.2825493,19.0033445 L36.4457508,18.6488004 L36.4457508,18.6488004 L36.6075669,18.3248451 C36.6343673,18.2733321 36.6610698,18.2230414 36.6876545,18.1739469 L36.8455871,17.8935266 L36.8455871,17.8935266 L36.9997274,17.6405641 L36.9997274,17.6405641 L37.1491126,17.413807 C37.1735604,17.3781284 37.1977699,17.3434895 37.2217212,17.3098642 L37.4297668,17.0338998 L37.4297668,17.0338998 L37.620615,16.8084442 L37.620615,16.8084442 L37.7366885,16.6841135 L37.7366885,16.6841135 L37.8916537,16.5334464 L37.8916537,16.5334464 L38.0574826,16.3928621 L38.0574826,16.3928621 L38.2226006,16.2796954 L38.2226006,16.2796954 C40.3411932,17.1723188 41.6004646,18.4389721 42.3153324,19.4265707 L42.5050387,19.7005843 C42.5342782,19.7447996 42.5623511,19.7882411 42.5892917,19.8308383 L42.7376173,20.0757251 L42.7376173,20.0757251 L42.860396,20.2969628 L42.860396,20.2969628 L42.9592602,20.4911666 L42.9592602,20.4911666 L43.0662871,20.724379 C43.0755977,20.746066 43.0840819,20.766274 43.0917736,20.7849324 C45.494571,20.8567531 47.7798555,21.7354136 49.7130149,23.6685731 C54.6370437,28.5926019 54.554743,32.9642642 52.7643301,36.7053482 L52.562395,37.1109613 C52.5276626,37.1781453 52.4924053,37.2451199 52.4566427,37.3118846 L52.2361638,37.709951 C52.1984598,37.7758744 52.1602902,37.841587 52.1216749,37.9070883 L51.8847932,38.2975571 L51.8847932,38.2975571 L51.6381657,38.6829328 L51.6381657,38.6829328 L51.382744,39.0631927 C51.3394937,39.1261417 51.2959167,39.1888767 51.2520327,39.2513971 L50.9852038,39.6239411 L50.9852038,39.6239411 L50.5732291,40.1730521 L50.5732291,40.1730521 L50.1500315,40.7104497 L50.1500315,40.7104497 C51.3488854,40.6053856 53.011256,41.1045005 54.6639007,42.7571453 L59.4994792,47.6373785 L59.4994792,47.6373785 C59.9485774,48.0864767 60.6912967,48.1101134 61.4718327,47.3699532 L108.723276,-0.0247120218 L108.723276,-0.0247120218 L-2.79953838e-12,-0.0247120218 Z" id="Fill-4" fill="#F15858"></path>
            <path id="octocat-arm" d="M47.7382965,53.191235 L47.3595828,53.7599416 C45.2119859,57.0597061 42.9126592,57.8934236 41.2476799,57.9601006 L40.9686156,57.9643341 C40.8777633,57.963452 40.789129,57.9603823 40.7028594,57.955442 L40.4512912,57.9353263 L40.4512912,57.9353263 L40.2147912,57.9058891 L40.2147912,57.9058891 L39.9942395,57.8690326 L39.9942395,57.8690326 L39.7905159,57.8266589 L39.7905159,57.8266589 L39.6045006,57.78067 L39.6045006,57.78067 L39.3606058,57.709069 L39.3606058,57.709069 L39.1615048,57.6400332 L39.1615048,57.6400332 L38.9095649,57.5353353 L38.9095649,57.5353353 L38.8594811,57.510864 L38.8594811,57.510864 C37.3329533,56.8632669 36.1271654,56.7424646 35.332158,56.7715067 L35.0687704,56.787365 L35.0687704,56.787365 L34.8403757,56.8119843 L34.8403757,56.8119843 L34.6478537,56.8416818 L34.6478537,56.8416818 L34.492084,56.8727748 L34.492084,56.8727748 L34.3292645,56.9139744 L34.3292645,56.9139744 L34.2490155,56.9394184 L34.2490155,56.9394184 C32.8089335,57.2290692 32.6164693,56.8856244 32.7597193,56.4928537 L32.8064258,56.3849501 C32.8153691,56.3669085 32.8248347,56.3488747 32.8347371,56.3309034 L32.8987064,56.2242651 L32.8987064,56.2242651 L33.0053197,56.0728794 L33.0053197,56.0728794 L33.1457867,55.9008481 L33.1457867,55.9008481 L33.2976235,55.73796 L33.2976235,55.73796 C34.4448759,54.7378455 35.8378834,54.5822301 36.7905491,54.6236458 L37.0624525,54.641334 L37.0624525,54.641334 L37.3038188,54.6669593 L37.3038188,54.6669593 L37.5105314,54.6966368 L37.5105314,54.6966368 L37.8035294,54.7526093 L37.8035294,54.7526093 L37.9085137,54.7781731 C40.947525,55.5393658 42.7662034,54.0818892 43.7816855,52.6305366 L43.9575608,52.367217 C44.0132976,52.2797965 44.0661771,52.1928937 44.116292,52.107004 L44.2584363,51.8528692 C44.2807757,51.811185 44.3024472,51.7698778 44.3234624,51.7290097 L44.4417708,51.4895638 C44.4602072,51.4506992 44.4780105,51.4123973 44.4951924,51.3747202 L44.6333625,51.0541649 L44.6333625,51.0541649 L44.997935,50.1317723 L44.997935,50.1317723 L45.2429986,49.5420742 L45.2429986,49.5420742 L45.2678359,49.4946564 C45.2703021,49.4912374 45.2719316,49.4900604 45.2727244,49.4911254 L48.2446613,52.4019758 L48.1130675,52.6134838 L48.1130675,52.6134838 L47.7382965,53.191235 L47.7382965,53.191235 Z" fill="#FFFFFF"></path>
        </g>
    </g>
</svg>