<?xml version="1.0" encoding="UTF-8"?>
<svg width="57px" height="34px" viewBox="0 0 57 34" version="1.1" xmlns="http://www.w3.org/2000/svg" xmlns:xlink="http://www.w3.org/1999/xlink">
    <g id="Page-1" stroke="none" stroke-width="1" fill="none" fill-rule="evenodd">
        <path d="M14.304,22.448 C18.912,22.448 22.4,19.248 22.4,14.992 C22.4,10.32 18.048,8.528 18.048,4.784 C18.048,3.376 19.04,2.416 20.16,2.416 C20.96,2.416 21.152,2.8 21.152,3.28 C21.152,4.112 20.064,4.464 20.064,5.552 C20.064,6.416 20.768,6.96 21.632,6.96 C22.944,6.96 23.84,5.68 23.84,4.272 C23.84,2 22.304,0.784 19.68,0.784 C17.024,0.784 13.536,2.64 13.536,6.128 C13.536,9.776 17.6,11.568 17.6,16.336 C17.6,18.64 16.48,20.336 14.944,20.336 C13.504,20.336 12.48,19.312 12.48,17.712 C12.48,16.208 13.344,14.96 14.272,14.352 C14.592,14.16 14.816,14.032 14.816,13.68 C14.816,13.392 14.496,13.168 13.408,13.168 C11.168,13.168 8,14.576 8,17.52 C8,20.656 10.912,22.448 14.304,22.448 Z M25.856,22.16 C30.176,22.16 34.432,17.616 34.432,14.288 C34.432,12.88 33.696,12.016 32.48,12.016 C31.424,12.016 30.56,12.688 30.56,13.84 C30.56,14.96 31.36,15.184 31.36,15.792 C31.36,17.424 29.664,19.6 28.288,19.6 C27.872,19.6 27.584,19.376 27.584,18.864 C27.584,16.912 28.736,14.256 28.736,12.848 C28.736,12.304 28.352,12.016 27.648,12.016 C25.792,12.016 24.096,12.496 24.096,13.2 C24.096,13.616 24.288,13.68 24.288,14.224 C24.288,15.376 23.232,17.584 23.232,19.696 C23.232,21.008 24.096,22.16 25.856,22.16 Z M38.144,31.216 C43.904,31.216 44.896,24.144 45.664,19.248 C46.528,13.744 47.104,13.072 47.104,12.496 C47.104,12.144 46.944,12.016 46.624,12.016 C45.728,12.016 44.704,12.624 44.032,12.624 C43.52,12.624 42.912,12.016 41.216,12.016 C36.64,12.016 34.72,15.28 34.72,18.416 C34.72,20.656 36.16,22.16 38.336,22.16 C40.384,22.16 41.696,20.944 41.856,20.72 C41.824,21.424 41.216,26.992 38.464,26.992 C37.376,26.992 36.64,26.416 36.64,25.488 C36.64,24.784 36.928,24.624 36.928,24.304 C36.928,24.112 36.8,24.016 36.576,24.016 C35.84,24.016 33.792,25.072 33.792,27.632 C33.792,29.872 35.808,31.216 38.144,31.216 Z M40,19.952 C39.296,19.952 38.88,19.28 38.88,18.448 C38.88,16.816 39.744,13.328 41.376,13.328 C42.08,13.328 42.464,13.68 42.464,14.256 C42.464,15.184 42.048,17.424 41.664,18.448 C41.28,19.44 40.704,19.952 40,19.952 Z" id="Svg" fill="#FFFFFF" fill-rule="nonzero"></path>
        <path d="M35.6079527,25.5876598 C36.4722092,23.0891198 50.0847521,13.3137534 55.2294204,20.2754268 C57.1425844,24.5189129 54.7327776,27.2941387 48,28.6011041 L5,28.6011041 C2.82126203,28.3782588 1.73189304,29.0667097 1.73189304,30.6664567 C1.73189304,32.2662038 2.82126203,32.9223413 5,32.6348694 L50.0847521,32.6348694 C52.5447869,32.1465949 53.7748044,30.4917307 53.7748044,27.6702768" id="Path" stroke="#FFFFFF" stroke-width="2" stroke-linecap="round"></path>
    </g>
</svg>