<?xml version="1.0" encoding="UTF-8"?>
<svg width="23px" height="23px" viewBox="0 0 23 23" version="1.1" xmlns="http://www.w3.org/2000/svg" xmlns:xlink="http://www.w3.org/1999/xlink">
    <g id="Page-1" stroke="none" stroke-width="1" fill="none" fill-rule="evenodd">
        <g id="Zoom-in" transform="translate(3.000000, 0.000000)" stroke="#FA6A95">
            <line x1="0" y1="19.3453646" x2="5.36916203" y2="14.0740741" id="Path-4" stroke-width="3" stroke-linecap="round"></line>
            <circle id="Oval" stroke-width="2.5" cx="10.9247176" cy="8.51851852" r="7.26851852"></circle>
        </g>
        <path d="M10.8696575,7.80967304 L10.1196201,7.80967304 C9.78053128,7.80967304 9.63905715,8.1428159 9.70923281,8.38110161 L11.0678336,10.9153873 C11.231764,11.1319588 11.5107824,11.1313873 11.7190638,10.8302445 L13.0776646,8.38110161 C13.1478402,8.08395876 13.0069275,7.80967304 12.6672773,7.80967304 L12.0036962,7.80967304 C12.2501532,6.41767304 13.3931743,5.52395876 14.7618804,5.52395876 C16.3096748,5.52395876 17.5689069,6.80567304 17.5689069,8.38110161 C17.5689069,9.95653018 16.4460963,11.2382445 14.7618804,11.2382445 L14.7618804,12.3811016 C17.0075016,12.3811016 18.6917175,10.5868159 18.6917175,8.38110161 C18.6917175,6.17538733 16.9283435,4.38110161 14.7618804,4.38110161 C12.7801198,4.38110161 11.1357637,5.81538733 10.8696575,7.80967304" id="Path" fill="#FA6A95" fill-rule="nonzero" transform="translate(14.191717, 8.381102) scale(-1, 1) rotate(36.000000) translate(-14.191717, -8.381102) "></path>
    </g>
</svg>